<svg width="70" height="70" viewBox="0 0 70 70" fill="none" xmlns="http://www.w3.org/2000/svg">
<path d="M25 27.5C31.9036 27.5 37.5 21.9036 37.5 15C37.5 8.09645 31.9036 2.5 25 2.5C18.0964 2.5 12.5 8.09645 12.5 15C12.5 21.9036 18.0964 27.5 25 27.5Z" stroke="white" stroke-linecap="round" stroke-linejoin="round"/>
<path d="M32.5 62.5H2.5V59.7895C2.53981 55.9785 3.54489 52.2395 5.42135 48.9224C7.29785 45.6051 9.9845 42.8176 13.2304 40.8201C16.4762 38.8226 20.1755 37.6804 23.9824 37.5002C27.7894 37.32 31.5799 38.1076 35 39.7895" stroke="white" stroke-linecap="round" stroke-linejoin="round"/>
<path d="M52.5 37.5V67.5" stroke="white" stroke-linecap="round" stroke-linejoin="round"/>
<path d="M37.5 52.5H67.5" stroke="white" stroke-linecap="round" stroke-linejoin="round"/>
</svg>
