<svg width="70" height="70" viewBox="0 0 70 70" fill="none" xmlns="http://www.w3.org/2000/svg">
<path fill-rule="evenodd" clip-rule="evenodd" d="M37.1875 24.0625C33.5631 24.0625 30.625 27.0006 30.625 30.625C30.625 34.2494 33.5631 37.1875 37.1875 37.1875C40.8119 37.1875 43.75 34.2494 43.75 30.625C43.75 27.0006 40.8119 24.0625 37.1875 24.0625ZM26.25 30.625C26.25 24.5844 31.1469 19.6875 37.1875 19.6875C43.2281 19.6875 48.125 24.5844 48.125 30.625C48.125 36.6656 43.2281 41.5625 37.1875 41.5625C31.1469 41.5625 26.25 36.6656 26.25 30.625Z" fill="black"/>
<path fill-rule="evenodd" clip-rule="evenodd" d="M6.5625 29.5312C6.5625 28.3231 7.54188 27.3438 8.75 27.3438H15.3125C16.5206 27.3438 17.5 28.3231 17.5 29.5312C17.5 30.7394 16.5206 31.7187 15.3125 31.7187H8.75C7.54188 31.7187 6.5625 30.7394 6.5625 29.5312Z" fill="black"/>
<path fill-rule="evenodd" clip-rule="evenodd" d="M6.5625 18.5937C6.5625 17.3856 7.54188 16.4062 8.75 16.4062H15.3125C16.5206 16.4062 17.5 17.3856 17.5 18.5937C17.5 19.8019 16.5206 20.7812 15.3125 20.7812H8.75C7.54188 20.7812 6.5625 19.8019 6.5625 18.5937Z" fill="black"/>
<path fill-rule="evenodd" clip-rule="evenodd" d="M6.5625 40.4688C6.5625 39.2606 7.54188 38.2812 8.75 38.2812H15.3125C16.5206 38.2812 17.5 39.2606 17.5 40.4688C17.5 41.6769 16.5206 42.6563 15.3125 42.6563H8.75C7.54188 42.6563 6.5625 41.6769 6.5625 40.4688Z" fill="black"/>
<path fill-rule="evenodd" clip-rule="evenodd" d="M6.5625 51.4062C6.5625 50.1981 7.54188 49.2188 8.75 49.2188H15.3125C16.5206 49.2188 17.5 50.1981 17.5 51.4062C17.5 52.6144 16.5206 53.5937 15.3125 53.5937H8.75C7.54188 53.5937 6.5625 52.6144 6.5625 51.4062Z" fill="black"/>
<path fill-rule="evenodd" clip-rule="evenodd" d="M37.1875 41.5625C34.9801 41.5625 32.803 42.0764 30.8287 43.0636C28.8543 44.0508 27.1369 45.4841 25.8125 47.25C25.0876 48.2165 23.7165 48.4124 22.75 47.6875C21.7835 46.9626 21.5876 45.5915 22.3125 44.625C24.0445 42.3157 26.2903 40.4414 28.8721 39.1505C31.454 37.8596 34.3009 37.1875 37.1875 37.1875C40.0741 37.1875 42.921 37.8596 45.5029 39.1505C48.0847 40.4414 50.3306 42.3157 52.0625 44.625C52.7874 45.5915 52.5915 46.9626 51.625 47.6875C50.6585 48.4124 49.2874 48.2165 48.5625 47.25C47.2381 45.4841 45.5207 44.0508 43.5463 43.0636C41.572 42.0764 39.3949 41.5625 37.1875 41.5625Z" fill="black"/>
<path fill-rule="evenodd" clip-rule="evenodd" d="M56.8751 6.5625C59.2913 6.5625 61.2501 8.52125 61.2501 10.9375V59.0625C61.2501 61.4787 59.2913 63.4375 56.8751 63.4375H17.5001C15.0838 63.4375 13.1251 61.4787 13.1251 59.0625V10.9375C13.1251 8.52125 15.0838 6.5625 17.5001 6.5625L56.8751 6.5625ZM56.8751 59.0625V10.9375L17.5001 10.9375V59.0625H56.8751Z" fill="black"/>
</svg>
