<svg width="70" height="70" viewBox="0 0 70 70" fill="none" xmlns="http://www.w3.org/2000/svg">
<path d="M65.9005 67.5C63.801 60.954 59.6775 55.244 54.1245 51.193C48.5708 47.142 41.8744 44.9591 35.0004 44.9591C28.1263 44.9591 21.4299 47.142 15.8764 51.193C10.323 55.244 6.19945 60.954 4.10034 67.5H65.9005Z" stroke="white" stroke-linecap="round" stroke-linejoin="round"/>
<path d="M35 45C46.6865 45 56.1605 35.5262 56.1605 23.8397C56.1605 12.1532 46.6865 2.67944 35 2.67944C23.3135 2.67944 13.8397 12.1532 13.8397 23.8397C13.8397 35.5262 23.3135 45 35 45Z" stroke="white" stroke-linecap="round" stroke-linejoin="round"/>
<path d="M41.9098 32.027C41.9098 32.027 40.1541 35.4817 35.0003 35.4817C29.8466 35.4817 28.0908 32.027 28.0908 32.027" stroke="white" stroke-linecap="round" stroke-linejoin="round"/>
<path d="M55.777 19.811C55.7295 19.8113 55.6825 19.8114 55.6355 19.8114C49.4846 19.8114 43.9625 17.1204 40.1818 12.8516C36.4012 17.1205 30.879 19.8116 24.7283 19.8116C21.1566 19.8116 17.7968 18.9041 14.8669 17.3072C17.6196 8.81765 25.5928 2.67944 34.9996 2.67944C45.3085 2.67944 53.8955 10.0513 55.777 19.811Z" stroke="white" stroke-linecap="round" stroke-linejoin="round"/>
</svg>
