<svg width="59" height="63" viewBox="0 0 59 63" fill="none" xmlns="http://www.w3.org/2000/svg">
<path fill-rule="evenodd" clip-rule="evenodd" d="M5.26266 31.5C5.53133 31.9958 5.88752 32.6276 6.32877 33.3571C7.46211 35.2309 9.14049 37.7228 11.3195 40.2047C15.7223 45.2194 21.878 49.875 29.5 49.875C37.122 49.875 43.2777 45.2194 47.6805 40.2047C49.8595 37.7228 51.5379 35.2309 52.6712 33.3571C53.1125 32.6276 53.4687 31.9958 53.7373 31.5C53.4687 31.0042 53.1125 30.3724 52.6712 29.6429C51.5379 27.7691 49.8595 25.2772 47.6805 22.7953C43.2777 17.7806 37.122 13.125 29.5 13.125C21.878 13.125 15.7223 17.7806 11.3195 22.7953C9.14049 25.2772 7.46211 27.7691 6.32877 29.6429C5.88752 30.3724 5.53133 31.0042 5.26266 31.5ZM56.5417 31.5C58.7405 30.3261 58.7401 30.3252 58.7396 30.3242L58.7356 30.3158L58.7271 30.2979L58.6993 30.2395C58.6758 30.1908 58.6427 30.1227 58.5999 30.0364C58.5144 29.8638 58.3903 29.6185 58.2282 29.3107C57.9041 28.6956 57.427 27.829 56.8014 26.7946C55.5533 24.7309 53.6978 21.9728 51.2674 19.2047C46.4515 13.7194 39.0863 7.875 29.5 7.875C19.9137 7.875 12.5485 13.7194 7.7326 19.2047C5.30222 21.9728 3.44674 24.7309 2.19858 26.7946C1.57296 27.829 1.09591 28.6956 0.771846 29.3107C0.609724 29.6185 0.485619 29.8638 0.400102 30.0364C0.357335 30.1227 0.324193 30.1908 0.300747 30.2395L0.27285 30.2979L0.264367 30.3158L0.261493 30.3219C0.261041 30.3229 0.259533 30.3261 2.45833 31.5L0.259533 30.3261C-0.0865111 31.0651 -0.0865111 31.9349 0.259533 32.6739L2.45833 31.5C0.259533 32.6739 0.259081 32.673 0.259533 32.6739L0.264367 32.6842L0.27285 32.7021L0.300747 32.7605C0.324193 32.8092 0.357335 32.8773 0.400102 32.9636C0.485619 33.1362 0.609724 33.3815 0.771846 33.6893C1.09591 34.3044 1.57296 35.171 2.19858 36.2054C3.44674 38.2691 5.30222 41.0272 7.7326 43.7953C12.5485 49.2806 19.9137 55.125 29.5 55.125C39.0863 55.125 46.4515 49.2806 51.2674 43.7953C53.6978 41.0272 55.5533 38.2691 56.8014 36.2054C57.427 35.171 57.9041 34.3044 58.2282 33.6893C58.3903 33.3815 58.5144 33.1362 58.5999 32.9636C58.6427 32.8773 58.6758 32.8092 58.6993 32.7605L58.7271 32.7021L58.7356 32.6842L58.7385 32.6781C58.739 32.6772 58.7405 32.6739 56.5417 31.5ZM56.5417 31.5L58.7405 32.6739C59.0865 31.9349 59.0856 31.0632 58.7396 30.3242L56.5417 31.5Z" fill="black"/>
<path fill-rule="evenodd" clip-rule="evenodd" d="M29.5 26.25C26.7846 26.25 24.5833 28.6005 24.5833 31.5C24.5833 34.3995 26.7846 36.75 29.5 36.75C32.2154 36.75 34.4166 34.3995 34.4166 31.5C34.4166 28.6005 32.2154 26.25 29.5 26.25ZM19.6666 31.5C19.6666 25.701 24.0692 21 29.5 21C34.9308 21 39.3333 25.701 39.3333 31.5C39.3333 37.299 34.9308 42 29.5 42C24.0692 42 19.6666 37.299 19.6666 31.5Z" fill="black"/>
</svg>
