<svg width="70" height="70" viewBox="0 0 70 70" fill="none" xmlns="http://www.w3.org/2000/svg">
<path d="M67.5 34.7C67.505 34.006 67.365 33.3186 67.0895 32.6816C66.814 32.0446 66.409 31.4719 65.9 31L35.0001 2.5L4.10011 31C3.59124 31.4719 3.18618 32.0446 2.91071 32.6816C2.63525 33.3186 2.49542 34.006 2.50011 34.7V62.5C2.50011 63.826 3.0269 65.098 3.96458 66.0355C4.90226 66.973 6.17405 67.5 7.5001 67.5H62.5C63.826 67.5 65.098 66.973 66.0355 66.0355C66.9735 65.098 67.5 63.826 67.5 62.5V34.7Z" stroke="white" stroke-linecap="round" stroke-linejoin="round"/>
<path d="M35 67.5V47.5" stroke="white" stroke-linecap="round" stroke-linejoin="round"/>
</svg>
