<svg width="70" height="70" viewBox="0 0 70 70" fill="none" xmlns="http://www.w3.org/2000/svg">
<path fill-rule="evenodd" clip-rule="evenodd" d="M32.0501 8.47297C32.8562 7.73697 33.9083 7.32886 35 7.32886C36.0917 7.32886 37.1438 7.73697 37.9499 8.47297C37.951 8.47395 37.9521 8.47492 37.9531 8.4759L59.8227 28.3499L59.8535 28.3784C60.2858 28.7867 60.632 29.2773 60.8718 29.8214C61.1116 30.3656 61.2401 30.9521 61.2497 31.5467L61.25 31.5821V56.875C61.25 58.0354 60.7891 59.1482 59.9686 59.9686C59.1481 60.7891 58.0353 61.25 56.875 61.25H43.75C42.5897 61.25 41.4769 60.7891 40.6564 59.9686C39.8359 59.1482 39.375 58.0354 39.375 56.875V43.75H30.625V56.875C30.625 58.0354 30.1641 59.1482 29.3436 59.9686C28.5231 60.7891 27.4103 61.25 26.25 61.25H13.125C11.9647 61.25 10.8519 60.7891 10.0314 59.9686C9.21094 59.1482 8.75 58.0354 8.75 56.875V31.5821L8.75029 31.5467C8.7599 30.9522 8.88839 30.3656 9.12817 29.8214C9.36794 29.2773 9.71417 28.7867 10.1465 28.3784L10.1773 28.3499L32.0469 8.4759C32.0479 8.47493 32.049 8.47395 32.0501 8.47297ZM13.1457 31.5639L34.9946 11.7088L35 11.7039L35.0054 11.7088L56.8543 31.5639C56.8601 31.5704 56.8648 31.5777 56.8683 31.5857C56.872 31.594 56.8742 31.6028 56.875 31.6118V56.875H43.75V43.75C43.75 42.5897 43.2891 41.4769 42.4686 40.6564C41.6481 39.836 40.5353 39.375 39.375 39.375H30.625C29.4647 39.375 28.3519 39.836 27.5314 40.6564C26.7109 41.4769 26.25 42.5897 26.25 43.75V56.875H13.125V31.6118C13.1258 31.6028 13.128 31.594 13.1317 31.5857C13.1352 31.5777 13.1399 31.5704 13.1457 31.5639Z" fill="black"/>
</svg>
