<svg width="70" height="70" viewBox="0 0 70 70" fill="none" xmlns="http://www.w3.org/2000/svg">
<path d="M47.5 52.5V62.5C47.5 63.826 46.9732 65.098 46.0356 66.0355C45.0979 66.973 43.8261 67.5 42.5 67.5H7.5C6.1739 67.5 4.90215 66.973 3.96446 66.0355C3.02678 65.098 2.5 63.826 2.5 62.5V7.5C2.5 6.1739 3.02678 4.90215 3.96446 3.96446C4.90215 3.02678 6.1739 2.5 7.5 2.5H42.5C43.8261 2.5 45.0979 3.02678 46.0356 3.96446C46.9732 4.90215 47.5 6.1739 47.5 7.5V17.5" stroke="white" stroke-linecap="round" stroke-linejoin="round"/>
<path d="M67.5 35H27.5" stroke="white" stroke-linecap="round" stroke-linejoin="round"/>
<path d="M37.5 25L27.5 35L37.5 45" stroke="white" stroke-linecap="round" stroke-linejoin="round"/>
</svg>
