<svg width="35" height="35" viewBox="0 0 35 35" fill="none" xmlns="http://www.w3.org/2000/svg">
<path fill-rule="evenodd" clip-rule="evenodd" d="M6.5625 30.625C5.35438 30.625 4.375 29.6456 4.375 28.4375L4.375 6.5625C4.375 5.35438 5.35438 4.375 6.5625 4.375H28.4375C29.6456 4.375 30.625 5.35438 30.625 6.5625V28.4375C30.625 29.6456 29.6456 30.625 28.4375 30.625H6.5625ZM6.5625 6.5625L6.5625 28.4375H28.4375V6.5625H6.5625Z" fill="black"/>
<path fill-rule="evenodd" clip-rule="evenodd" d="M13.6719 13.6719C14.2759 13.6719 14.7656 14.1616 14.7656 14.7656V20.2344H20.2344C20.8384 20.2344 21.3281 20.7241 21.3281 21.3281C21.3281 21.9322 20.8384 22.4219 20.2344 22.4219H13.6719C13.0678 22.4219 12.5781 21.9322 12.5781 21.3281V14.7656C12.5781 14.1616 13.0678 13.6719 13.6719 13.6719Z" fill="black"/>
<path fill-rule="evenodd" clip-rule="evenodd" d="M22.1015 12.8985C22.5287 13.3256 22.5287 14.0181 22.1015 14.4453L14.4453 22.1015C14.0181 22.5287 13.3256 22.5287 12.8985 22.1015C12.4713 21.6744 12.4713 20.9819 12.8985 20.5547L20.5547 12.8985C20.9819 12.4713 21.6744 12.4713 22.1015 12.8985Z" fill="black"/>
</svg>
