<svg width="70" height="70" viewBox="0 0 70 70" fill="none" xmlns="http://www.w3.org/2000/svg">
<path d="M35 40C41.9036 40 47.5 34.4036 47.5 27.5C47.5 20.5964 41.9036 15 35 15C28.0964 15 22.5 20.5964 22.5 27.5C22.5 34.4036 28.0964 40 35 40Z" stroke="white" stroke-linecap="round" stroke-linejoin="round"/>
<path d="M13.6499 59.5C15.8811 55.8375 19.017 52.8105 22.756 50.7105C26.495 48.6099 30.7114 47.5067 34.9999 47.5067C39.2885 47.5067 43.5049 48.6099 47.2439 50.7105C50.983 52.8105 54.1185 55.8375 56.35 59.5" stroke="white" stroke-linecap="round" stroke-linejoin="round"/>
<path d="M35 67.5C52.9495 67.5 67.5 52.9495 67.5 35C67.5 17.0508 52.9495 2.5 35 2.5C17.0508 2.5 2.5 17.0508 2.5 35C2.5 52.9495 17.0508 67.5 35 67.5Z" stroke="white" stroke-linecap="round" stroke-linejoin="round"/>
</svg>
