<svg width="63" height="62" viewBox="0 0 63 62" fill="none" xmlns="http://www.w3.org/2000/svg">
<g clip-path="url(#clip0_34_121)">
<path fill-rule="evenodd" clip-rule="evenodd" d="M3.84422 39.9498C6.30564 37.5275 9.64403 36.1666 13.125 36.1666H31.5C34.981 36.1666 38.3194 37.5275 40.7808 39.9498C43.2422 42.3722 44.625 45.6576 44.625 49.0833V54.25C44.625 55.6767 43.4497 56.8333 42 56.8333C40.5503 56.8333 39.375 55.6767 39.375 54.25V49.0833C39.375 47.0279 38.5453 45.0566 37.0685 43.6032C35.5916 42.1498 33.5886 41.3333 31.5 41.3333H13.125C11.0364 41.3333 9.03338 42.1498 7.55653 43.6032C6.07968 45.0566 5.25 47.0279 5.25 49.0833V54.25C5.25 55.6767 4.07475 56.8333 2.625 56.8333C1.17525 56.8333 0 55.6767 0 54.25V49.0833C0 45.6576 1.38281 42.3722 3.84422 39.9498Z" fill="black"/>
<path fill-rule="evenodd" clip-rule="evenodd" d="M22.3125 10.3334C17.9633 10.3334 14.4375 13.8032 14.4375 18.0834C14.4375 22.3636 17.9633 25.8334 22.3125 25.8334C26.6617 25.8334 30.1875 22.3636 30.1875 18.0834C30.1875 13.8032 26.6617 10.3334 22.3125 10.3334ZM9.1875 18.0834C9.1875 10.9497 15.0638 5.16675 22.3125 5.16675C29.5612 5.16675 35.4375 10.9497 35.4375 18.0834C35.4375 25.2171 29.5612 31.0001 22.3125 31.0001C15.0638 31.0001 9.1875 25.2171 9.1875 18.0834Z" fill="black"/>
<path fill-rule="evenodd" clip-rule="evenodd" d="M52.5 18.0834C53.9498 18.0834 55.125 19.24 55.125 20.6667V36.1667C55.125 37.5934 53.9498 38.75 52.5 38.75C51.0503 38.75 49.875 37.5934 49.875 36.1667V20.6667C49.875 19.24 51.0503 18.0834 52.5 18.0834Z" fill="black"/>
<path fill-rule="evenodd" clip-rule="evenodd" d="M42.0001 28.4167C42.0001 26.99 43.1753 25.8334 44.6251 25.8334H60.3751C61.8248 25.8334 63.0001 26.99 63.0001 28.4167C63.0001 29.8434 61.8248 31 60.3751 31H44.6251C43.1753 31 42.0001 29.8434 42.0001 28.4167Z" fill="black"/>
</g>
<defs>
<clipPath id="clip0_34_121">
<rect width="63" height="62" fill="white"/>
</clipPath>
</defs>
</svg>
